<svg version="1.1" id="Layer_1" xmlns="http://www.w3.org/2000/svg" xmlns:xlink="http://www.w3.org/1999/xlink" x="0px" y="0px"
	 width="100%" viewBox="0 0 575 766" enable-background="new 0 0 575 766" xml:space="preserve">
<path fill="none" opacity="1.000000" stroke="#000000" stroke-linecap="round" stroke-linejoin="round" stroke-width="3.000000"
	d="
M127.500000,367.500000 
	C127.836693,361.818542 126.387115,356.206726 126.886093,350.490051 
	C126.996552,349.224548 125.858391,347.686676 124.968864,346.523804 
	C119.196213,338.977386 113.419495,331.430634 107.462891,324.029877 
	C104.573715,320.440247 101.053391,320.011261 96.496071,321.990967 
	C89.510994,325.025330 82.556107,328.141876 75.477104,330.942139 
	C71.752533,332.415527 69.294617,335.284760 68.143555,338.550598 
	C64.842117,347.917633 58.217617,353.078125 48.995556,355.482971 
	C45.967808,356.272491 44.234673,358.012451 42.890102,360.949707 
	C40.443878,366.293549 37.485249,371.426514 34.408211,376.443695 
	C33.475033,377.965271 32.787544,379.770721 33.131905,380.961853 
	C35.445602,388.964752 36.164509,397.660706 41.552711,404.458221 
	C48.165051,412.800049 55.156670,420.841705 62.001835,428.998474 
	C84.663666,456.002533 107.223427,483.093323 130.041382,509.964874 
	C143.649002,525.989807 157.676682,541.657959 171.496643,557.502930 
	C181.513824,568.987915 191.718689,580.319824 201.406311,592.077209 
	C206.139877,597.822144 211.576752,601.091492 219.000000,601.000000 
"/>
<path fill="none" opacity="1.000000" stroke="#000000" stroke-linecap="round" stroke-linejoin="round" stroke-width="2.000000"
	d="
M44.000000,361.500000 
	C52.812111,374.203796 62.978848,385.850677 72.526543,397.979095 
	C93.440865,424.546539 114.395096,451.084076 135.538849,477.468872 
	C148.495499,493.637177 161.908768,509.438690 174.979324,525.516785 
	C188.738312,542.441772 202.283432,559.540588 216.042130,576.465759 
	C218.786011,579.841125 221.301102,583.589600 226.176224,585.286377 
	C228.243637,584.884705 230.416641,583.225037 232.487793,581.485474 
	C265.005219,554.172913 297.444702,526.767212 330.020508,499.524536 
	C349.909424,482.891693 369.978882,466.474182 390.042542,450.051971 
	C391.549896,448.818268 393.018829,446.908112 395.500000,447.500000 
"/>
<path fill="none" opacity="1.000000" stroke="#000000" stroke-linecap="round" stroke-linejoin="round" stroke-width="3.000000"
	d="
M504.000000,318.500000 
	C506.666656,321.000000 509.395813,323.437164 511.986694,326.013367 
	C517.043091,331.041107 516.864014,340.140411 511.484009,344.982208 
	C492.358368,362.194489 473.215576,379.388336 453.985840,396.484070 
	C435.718140,412.724609 416.415283,427.926361 399.277039,445.273712 
	C384.321472,460.411743 368.354736,474.361755 352.903961,488.897919 
	C337.003082,503.857574 320.399323,518.075195 303.984253,532.482056 
	C280.546204,553.052673 257.041199,573.547668 233.459549,593.953308 
	C229.507492,597.373047 225.321503,600.820679 219.460983,601.052368 
	C219.879883,595.115356 223.344147,590.900635 225.000000,586.000000 
"/>
<path fill="none" opacity="1.000000" stroke="#000000" stroke-linecap="round" stroke-linejoin="round" stroke-width="4.000000"
	d="
M515.000000,334.500000 
	C505.674133,340.683838 497.435272,348.238800 489.078613,355.589355 
	C482.325165,361.529694 475.007568,366.765381 468.326202,372.807831 
	C466.189789,374.739899 464.141296,376.240356 462.942078,378.974609 
	C460.843475,383.759430 456.263489,386.314575 452.462067,389.454071 
	C419.083130,417.020660 385.820374,444.748322 350.913330,470.381958 
	C343.697632,475.680695 337.921814,482.509705 330.537903,487.555481 
	C323.749115,492.194611 321.684326,492.434662 315.524200,486.972717 
	C308.287354,480.556091 302.441559,472.745728 295.049744,466.441681 
	C291.274994,463.222412 288.210907,459.123810 283.000000,458.000000 
"/>
<path fill="none" opacity="1.000000" stroke="#000000" stroke-linecap="round" stroke-linejoin="round" stroke-width="3.000000"
	d="
M256.500000,240.500000 
	C248.546143,223.280624 236.561081,209.459534 220.427094,199.619537 
	C211.432983,194.134064 201.535355,191.554749 190.989868,195.975845 
	C184.194702,198.824661 177.821960,208.473145 178.549362,215.494888 
	C178.772934,217.653015 179.632431,219.484772 182.498215,219.564346 
	C185.205475,219.639511 186.488251,218.385712 186.986282,215.997147 
	C187.467545,213.689087 186.833252,211.421555 187.841370,208.935669 
	C190.188278,203.148544 192.219818,201.293701 198.499817,201.505646 
	C208.565811,201.845367 216.834625,206.274948 224.540863,212.448990 
	C235.698120,221.387939 242.668274,233.362427 249.500000,245.500000 
"/>
<path fill="none" opacity="1.000000" stroke="#000000" stroke-linecap="round" stroke-linejoin="round" stroke-width="3.000000"
	d="
M264.500000,458.500000 
	C259.983398,460.391785 256.548401,463.905151 252.545349,466.568176 
	C237.324631,476.693939 222.304626,487.141266 205.974579,495.450043 
	C199.887070,498.547363 198.315460,498.551880 193.548340,493.454773 
	C186.857025,486.300385 180.500000,478.833344 174.000000,471.500000 
"/>
<path fill="none" opacity="1.000000" stroke="#000000" stroke-linecap="round" stroke-linejoin="round" stroke-width="3.000000"
	d="
M203.000000,437.500000 
	C194.004608,443.424744 184.956985,449.255737 175.006882,453.516083 
	C174.121735,453.895081 173.290039,454.992432 172.506744,454.923553 
	C165.076218,454.270111 163.412369,459.721649 162.098557,465.024414 
	C161.068924,469.180176 159.057556,473.107147 159.000000,477.500000 
"/>
<path fill="none" opacity="1.000000" stroke="#000000" stroke-linecap="round" stroke-linejoin="round" stroke-width="2.000000"
	d="
M444.000000,171.000000 
	C444.333344,174.000000 444.387482,177.065765 445.074524,179.982452 
	C445.839752,183.231339 448.554260,185.536697 450.621765,189.044815 
	C443.777832,190.466797 436.839935,190.715805 431.357330,197.428040 
	C430.750427,189.220535 428.562195,182.846985 423.528198,177.311096 
	C431.398834,178.058716 436.961792,173.634399 443.000000,170.500000 
"/>
<path fill="none" opacity="1.000000" stroke="#000000" stroke-linecap="round" stroke-linejoin="round" stroke-width="3.000000"
	d="
M162.000000,397.500000 
	C153.993866,402.549469 145.816299,407.305359 136.481155,409.416687 
	C133.694031,410.047058 132.728226,411.025513 131.793747,413.933716 
	C129.549789,420.917328 127.058670,427.811798 125.500000,435.000000 
"/>
<path fill="none" opacity="1.000000" stroke="#000000" stroke-linecap="round" stroke-linejoin="round" stroke-width="3.000000"
	d="
M173.500000,350.000000 
	C173.166672,344.000000 172.364609,337.973755 172.698624,332.011139 
	C172.864548,329.049561 172.219803,327.124176 170.535095,324.972534 
	C165.768158,318.884369 161.133911,312.691101 156.510361,306.492279 
	C152.803879,301.522980 148.743454,300.500946 142.988541,302.973328 
	C138.724823,304.805084 134.517288,306.740234 130.024216,308.081116 
	C124.489052,309.733002 119.810333,312.558533 117.382782,318.451721 
	C116.036125,321.720856 113.500008,324.500000 111.500008,327.500000 
"/>
<path fill="none" opacity="1.000000" stroke="#000000" stroke-linecap="round" stroke-linejoin="round" stroke-width="3.000000"
	d="
M264.500000,520.000000 
	C263.938416,527.632141 263.667633,534.779358 256.174713,540.239746 
	C248.151657,546.086426 240.269806,552.251221 232.464508,558.455322 
	C226.165009,563.462524 222.525543,562.308777 216.900635,556.089844 
	C210.050217,548.516113 204.199875,540.160522 197.422684,532.569031 
	C195.712234,530.653137 194.778488,528.291138 193.302017,526.758911 
	C195.239975,520.055115 199.715836,514.964783 203.591461,509.565643 
	C206.220734,505.902832 210.809433,504.465729 214.486267,501.979706 
	C221.035080,497.551880 227.447830,492.921997 234.018402,488.527527 
	C238.362823,485.621948 242.463150,487.086975 245.595520,491.431122 
	C248.124039,494.937744 251.466202,497.866272 254.509384,500.990875 
	C257.633728,504.198730 260.875153,507.292938 263.987305,510.512268 
	C266.669098,513.286438 267.006195,516.507812 263.948029,518.934509 
	C255.574310,525.579163 247.532242,532.776428 237.495102,536.988342 
	C231.871902,539.347961 230.665741,538.828064 225.964493,534.538940 
	C217.902603,527.183777 211.473526,518.371521 204.000000,510.500000 
"/>
<path fill="none" opacity="1.000000" stroke="#000000" stroke-linecap="round" stroke-linejoin="round" stroke-width="3.000000"
	d="
M203.500000,453.000000 
	C202.718277,450.666656 203.157501,448.381256 203.418167,445.991089 
	C204.220398,438.634827 205.332672,431.406097 198.642426,425.342834 
	C194.502396,421.590729 190.837418,417.109467 187.789017,412.129150 
	C185.932449,409.095947 182.192291,406.998779 178.929108,405.123352 
	C176.916351,403.966553 174.251389,405.671539 172.591583,406.654633 
	C162.872604,412.411285 152.785324,417.343964 142.637161,422.281891 
	C137.009598,425.020172 133.881866,431.509216 130.518936,437.011566 
	C129.940735,437.957581 130.010178,439.191620 129.017899,440.021393 
	C126.503914,442.123596 127.511879,444.550598 129.045135,446.463837 
	C137.412109,456.904572 145.155304,467.862305 154.503281,477.496826 
	C157.374557,480.456116 160.926041,477.285980 164.000000,478.500000 
"/>
<path fill="none" opacity="1.000000" stroke="#000000" stroke-linecap="round" stroke-linejoin="round" stroke-width="3.000000"
	d="
M248.500000,436.000000 
	C246.017181,433.921814 242.156204,434.772217 240.248764,431.635406 
	C230.269958,437.559692 220.561310,443.160126 211.019836,449.032227 
	C200.572510,455.461823 189.575821,460.773224 178.565323,466.134186 
	C172.407532,469.132355 168.547134,474.930573 164.294098,480.338043 
	C159.568146,486.346741 163.176559,489.432373 166.454834,493.536072 
	C173.765900,502.688049 180.576843,512.257202 189.177246,520.053772 
	C191.664368,519.651672 193.515335,517.266357 196.000000,519.000000 
"/>
<path fill="none" opacity="1.000000" stroke="#000000" stroke-linecap="round" stroke-linejoin="round" stroke-width="3.000000"
	d="
M310.000000,483.000000 
	C306.798798,487.010834 308.683167,492.116547 307.129883,496.545563 
	C306.473541,498.417053 306.099365,500.245331 304.493866,501.492096 
	C295.673401,508.341980 286.838013,515.172729 277.993225,521.991211 
	C277.043610,522.723267 275.959290,523.280212 275.007263,524.009521 
	C271.512146,526.686951 268.168640,526.960449 265.000000,523.500000 
"/>
<path fill="none" opacity="1.000000" stroke="#000000" stroke-linecap="round" stroke-linejoin="round" stroke-width="3.000000"
	d="
M284.000000,282.000000 
	C277.232483,284.835358 271.128784,289.369904 263.500244,290.003021 
	C262.595459,290.078094 262.222321,290.632202 261.980225,291.494446 
	C260.012390,298.503479 256.659363,305.116974 256.000000,312.500000 
"/>
<path fill="none" opacity="1.000000" stroke="#000000" stroke-linecap="round" stroke-linejoin="round" stroke-width="2.000000"
	d="
M412.000000,239.000000 
	C410.820679,234.997696 413.319702,231.458511 414.339844,228.103333 
	C416.678040,220.413025 412.899017,215.825455 408.489197,211.009888 
	C407.057953,209.446930 405.420013,208.070648 404.018341,206.483810 
	C401.800507,203.972946 400.343475,199.604507 396.535187,200.218338 
	C391.887299,200.967499 387.395386,203.102615 383.036041,205.079453 
	C380.025635,206.444550 381.278870,209.900650 382.619232,210.827606 
	C387.481018,214.189896 388.490448,220.114594 392.407501,224.091110 
	C396.468018,228.213272 395.517761,234.068375 394.743469,238.959381 
	C393.984039,243.756393 392.339996,248.805679 388.500000,252.500000 
"/>
<path fill="none" opacity="1.000000" stroke="#000000" stroke-linecap="round" stroke-linejoin="round" stroke-width="3.000000"
	d="
M317.000000,267.500000 
	C310.513214,269.870117 304.584961,273.818451 297.497925,274.477631 
	C295.847412,274.631134 295.413849,276.357300 295.152679,277.057007 
	C292.887817,283.124786 290.983124,289.328033 289.038452,295.512085 
	C288.910339,295.919403 289.333313,296.500000 289.500000,297.000000 
"/>
<path fill="none" opacity="1.000000" stroke="#000000" stroke-linecap="round" stroke-linejoin="round" stroke-width="3.000000"
	d="
M201.000000,400.500000 
	C199.970184,394.466766 201.937927,388.550171 201.764374,382.492432 
	C201.684692,379.711853 201.100250,377.871002 199.497177,376.002411 
	C194.411072,370.073975 189.534012,363.936096 184.330765,358.152252 
	C180.143539,353.497742 180.243530,348.429382 181.241562,343.549408 
	C182.165405,339.032135 183.977493,334.606964 185.094086,330.022919 
	C185.905487,326.691833 188.107727,324.588501 191.979156,323.885254 
	C198.669662,322.669952 204.603546,319.313080 210.516342,316.029419 
	C213.873810,314.164825 213.740097,311.604462 211.944260,309.039032 
	C209.501266,305.549103 206.618942,302.370148 204.012451,298.990387 
	C200.959259,295.031433 198.330185,290.682526 194.890579,287.105194 
	C192.354767,284.467834 189.053497,283.207886 184.938309,285.383301 
	C180.204056,287.885986 175.047607,289.631805 169.985718,291.460449 
	C165.522278,293.072906 161.539856,294.908600 159.914062,299.972412 
	C159.271408,301.973999 157.666672,303.666656 156.500000,305.500000 
"/>
<path fill="none" opacity="1.000000" stroke="#000000" stroke-linecap="round" stroke-linejoin="round" stroke-width="3.000000"
	d="
M144.500000,344.500000 
	C141.192856,350.796021 140.059357,357.798462 137.755127,364.433807 
	C128.056732,367.300415 118.738853,371.832703 110.191376,377.299225 
	C105.392113,380.368591 102.065346,386.103882 99.907524,391.965973 
	C99.154106,394.012756 97.417137,395.735657 95.979034,397.482758 
	C94.137001,399.720520 94.663124,402.138214 96.065453,403.949310 
	C103.761581,413.888885 111.717773,423.626587 119.473846,433.520508 
	C122.411148,437.267456 126.657982,434.503143 130.000000,436.000000 
"/>
<path fill="none" opacity="1.000000" stroke="#000000" stroke-linecap="round" stroke-linejoin="round" stroke-width="3.000000"
	d="
M60.000000,352.000000 
	C56.836514,359.489075 61.923988,364.036530 65.984276,369.012817 
	C71.381317,375.627502 76.588150,382.398224 82.025993,388.978516 
	C86.043770,393.840393 88.507057,394.274506 94.481461,391.460632 
	C95.965782,390.761566 97.406395,390.412109 99.000000,390.500000 
"/>
<path fill="none" opacity="1.000000" stroke="#000000" stroke-linecap="round" stroke-linejoin="round" stroke-width="3.000000"
	d="
M212.000000,336.000000 
	C213.676712,341.548492 218.352905,344.990845 221.569839,349.449615 
	C225.096451,354.337555 229.132446,358.862030 233.012405,363.489594 
	C235.475128,366.426849 235.630417,368.736023 232.034500,371.053528 
	C226.969421,374.317871 221.988434,377.590485 216.012070,379.049438 
	C213.513504,379.659393 211.452759,380.931580 210.946487,383.991150 
	C210.213684,388.419586 207.353363,392.313080 207.500000,397.000000 
"/>
<path fill="none" opacity="1.000000" stroke="#000000" stroke-linecap="round" stroke-linejoin="round" stroke-width="3.000000"
	d="
M42.500000,308.000000 
	C41.638062,309.211029 39.860641,307.773193 38.936077,309.465057 
	C37.353752,312.360535 34.798710,314.007172 31.543924,315.127594 
	C28.066542,316.324615 28.045948,319.453918 30.996534,322.503357 
	C32.509140,324.066650 34.237873,325.047455 36.500214,325.014893 
	C39.507648,324.971588 42.527546,324.837524 45.420052,325.621643 
	C47.881458,321.559113 46.835712,317.199402 46.968555,312.998993 
	C47.050854,310.396729 45.182758,309.244965 43.000000,308.500000 
"/>
<path fill="none" opacity="1.000000" stroke="#000000" stroke-linecap="round" stroke-linejoin="round" stroke-width="3.000000"
	d="
M373.000000,241.000000 
	C368.086426,242.204849 364.080780,245.641266 359.014771,246.579773 
	C357.186951,246.918396 356.114014,248.728958 355.515839,250.505325 
	C353.665649,255.999573 350.862640,261.185944 350.027802,267.003998 
	C349.744110,268.980957 348.745361,270.225708 347.000000,271.000000 
"/>
<path fill="none" opacity="1.000000" stroke="#000000" stroke-linecap="round" stroke-linejoin="round" stroke-width="3.000000"
	d="
M286.000000,412.000000 
	C292.333313,408.166656 298.690186,404.371429 304.991028,400.485443 
	C308.640381,398.234711 311.682587,398.219025 315.070496,401.425507 
	C320.643799,406.700256 326.719910,411.439606 332.483765,416.518402 
	C337.414459,420.863159 337.344910,422.414093 331.981903,426.476105 
	C326.896515,430.327881 322.288910,435.058716 315.504852,436.033752 
	C314.968018,436.110901 314.116730,436.610199 314.058044,437.008545 
	C313.282532,442.270355 309.583008,446.862823 310.500000,452.500000 
"/>
<path fill="none" opacity="1.000000" stroke="#000000" stroke-linecap="round" stroke-linejoin="round" stroke-width="2.000000"
	d="
M375.000000,311.000000 
	C381.605438,318.762573 389.047272,325.648895 396.844421,332.026001 
	C401.876587,331.177032 405.088531,326.747375 410.000000,326.000000 
"/>
<path fill="none" opacity="1.000000" stroke="#000000" stroke-linecap="round" stroke-linejoin="round" stroke-width="2.000000"
	d="
M186.000000,346.500000 
	C194.065079,342.223663 202.396454,338.625488 210.860947,335.160339 
	C217.350769,332.503571 223.670105,328.839783 230.008072,325.515381 
	C231.788620,324.581421 233.601349,323.567535 235.523392,323.095184 
	C236.765213,322.790009 238.495178,322.355469 239.499878,324.000061 
	C245.608047,333.998413 254.645905,341.627869 261.404968,351.068054 
	C263.968994,354.649170 261.735779,359.023804 261.404510,362.992035 
	C261.164581,365.866211 260.770752,368.666656 261.500000,371.500000 
"/>
<path fill="none" opacity="1.000000" stroke="#000000" stroke-linecap="round" stroke-linejoin="round" stroke-width="3.000000"
	d="
M316.500000,284.000000 
	C315.522888,279.565857 317.117432,275.324280 317.558746,271.006012 
	C317.998779,266.699768 317.696106,262.931793 314.561157,259.445007 
	C309.500336,253.816223 304.988434,247.693359 299.917511,242.074432 
	C298.094452,240.054337 295.692017,239.118607 292.417236,240.842819 
	C288.605286,242.849823 284.063599,243.414413 280.026154,245.063980 
	C275.004669,247.115585 272.537842,251.892181 269.500000,256.000000 
"/>
<path fill="none" opacity="1.000000" stroke="#000000" stroke-linecap="round" stroke-linejoin="round" stroke-width="2.000000"
	d="
M150.000000,362.500000 
	C156.833328,371.000000 163.634277,379.526367 170.521454,387.982544 
	C172.379944,390.264435 174.500000,392.333344 176.500000,394.500000 
"/>
<path fill="none" opacity="1.000000" stroke="#000000" stroke-linecap="round" stroke-linejoin="round" stroke-width="3.000000"
	d="
M321.500000,283.000000 
	C313.645416,285.836182 305.691833,288.371521 299.426300,294.423706 
	C297.422516,296.359283 294.114502,295.911469 291.442383,296.832886 
	C284.643036,299.177643 278.812012,303.039886 273.028290,307.040924 
	C269.766937,309.297058 269.638916,311.904602 272.446838,315.047485 
	C277.960907,321.219360 283.193481,327.644318 288.490997,334.007507 
	C292.315216,338.601013 292.094269,340.077240 286.987579,342.978119 
	C281.908661,345.863159 277.288788,349.829987 271.001404,350.041718 
	C270.490753,350.058929 269.670349,350.575806 269.549622,351.013672 
	C267.827240,357.260376 263.863708,363.041473 265.500000,370.000000 
"/>
<path fill="none" opacity="1.000000" stroke="#000000" stroke-linecap="round" stroke-linejoin="round" stroke-width="3.000000"
	d="
M416.000000,368.500000 
	C410.419678,372.276093 405.865387,377.847748 398.499268,378.513184 
	C398.306824,381.921448 396.693054,384.897003 395.484344,387.993896 
	C394.906799,389.473663 393.754883,390.843140 395.000000,392.500000 
"/>
<path fill="none" opacity="1.000000" stroke="#000000" stroke-linecap="round" stroke-linejoin="round" stroke-width="2.000000"
	d="
M298.000000,296.000000 
	C302.024261,302.045074 307.378601,306.961395 312.007507,312.493713 
	C314.130096,315.030609 316.499725,317.377228 318.458160,320.030884 
	C320.938354,323.391571 320.495972,325.299957 316.981384,327.469818 
	C315.528107,328.367065 314.097931,329.298828 312.550323,330.097504 
	C299.375763,336.896576 299.445282,336.943359 290.487640,326.010132 
	C285.389374,319.787415 280.166687,313.666656 275.000000,307.500000 
"/>
<path fill="none" opacity="1.000000" stroke="#000000" stroke-linecap="round" stroke-linejoin="round" stroke-width="2.000000"
	d="
M186.500000,348.000000 
	C194.748123,358.703888 202.720383,369.631134 212.000000,379.500000 
"/>
<path fill="none" opacity="1.000000" stroke="#000000" stroke-linecap="round" stroke-linejoin="round" stroke-width="2.000000"
	d="
M479.000000,269.000000 
	C482.169495,269.990295 485.338989,270.980591 488.779907,272.055695 
	C490.072693,268.333099 493.070404,266.186188 497.111816,264.391357 
	C492.752350,261.740173 488.362915,259.499878 488.612885,253.332596 
	C484.637238,257.196045 481.034546,259.816284 475.437653,258.059662 
	C477.086243,262.416260 479.010345,265.596771 477.599976,269.535797 
	C476.918060,271.440399 478.563385,272.949890 480.497589,272.902008 
	C482.022339,272.864288 482.211456,274.577087 483.500000,274.500000 
"/>
<path fill="none" opacity="1.000000" stroke="#000000" stroke-linecap="round" stroke-linejoin="round" stroke-width="3.000000"
	d="
M470.000000,288.500000 
	C464.000000,292.166656 457.868652,295.638702 452.046112,299.568298 
	C448.153381,302.195496 444.843079,303.309509 441.432129,299.054413 
	C441.107605,298.649628 439.833344,297.727936 439.027252,298.986359 
	C438.333344,299.333344 438.550934,299.496094 438.966553,300.026215 
	C443.384521,305.662201 443.350281,306.035736 436.975494,309.454315 
	C434.810791,310.615234 432.712372,311.857574 430.023193,312.188477 
	C428.062744,312.429779 426.878357,312.380310 425.475220,311.025665 
	C419.198914,304.966583 412.833313,299.000000 406.500000,293.000000 
"/>
<path fill="none" opacity="1.000000" stroke="#000000" stroke-linecap="round" stroke-linejoin="round" stroke-width="2.000000"
	d="
M71.500000,336.000000 
	C78.000000,344.500000 84.426270,353.058258 91.058327,361.453918 
	C92.492355,363.269348 94.666656,364.500000 96.499985,366.000000 
"/>
<path fill="none" opacity="1.000000" stroke="#000000" stroke-linecap="round" stroke-linejoin="round" stroke-width="2.000000"
	d="
M214.500000,336.000000 
	C221.333328,344.166656 228.106094,352.385315 235.039490,360.466125 
	C236.946579,362.688812 239.333679,364.499634 241.299759,366.314148 
	C248.805710,364.987152 254.897369,360.982330 261.000000,357.000000 
"/>
<path fill="none" opacity="1.000000" stroke="#000000" stroke-linecap="round" stroke-linejoin="round" stroke-width="2.000000"
	d="
M496.000000,392.000000 
	C493.213074,393.536072 490.477112,399.339050 490.939545,402.010468 
	C491.276489,403.956940 493.189453,404.524170 493.967041,404.351532 
	C497.313232,403.608521 501.072693,404.457458 504.676666,401.609985 
	C499.631470,400.068085 501.721436,393.292267 496.500000,392.000000 
"/>
<path fill="none" opacity="1.000000" stroke="#000000" stroke-linecap="round" stroke-linejoin="round" stroke-width="3.000000"
	d="
M419.500000,332.000000 
	C424.682678,336.685638 431.156738,339.493256 436.572998,343.910492 
	C441.805176,348.177643 442.304565,347.869904 441.920319,353.494568 
	C441.647491,357.488159 440.793762,360.925812 436.615814,363.675934 
	C424.456085,371.680084 412.842010,380.512115 400.997589,388.996613 
	C389.342163,397.345642 377.656158,405.652039 366.004608,414.006409 
	C360.477905,417.969177 355.168701,422.260742 349.467438,425.949677 
	C334.164093,435.851624 320.112671,447.556030 304.500000,457.000000 
"/>
<path fill="none" opacity="1.000000" stroke="#000000" stroke-linecap="round" stroke-linejoin="round" stroke-width="3.000000"
	d="
M329.000000,261.000000 
	C326.666687,267.166656 324.237457,273.300232 322.085968,279.529694 
	C321.685822,280.688263 321.695374,282.184814 322.942566,283.552399 
	C329.069092,290.270325 334.940491,297.220276 341.027618,303.975128 
	C343.675110,306.913025 345.846771,309.287323 344.349426,314.108521 
	C343.556305,316.662170 342.411835,320.333344 344.000000,323.500000 
"/>
<path fill="none" opacity="1.000000" stroke="#000000" stroke-linecap="round" stroke-linejoin="round" stroke-width="3.000000"
	d="
M406.500000,244.500000 
	C409.831848,238.719727 416.668121,238.794174 421.578674,235.621765 
	C422.886414,234.776917 425.123535,235.447052 426.506104,236.994537 
	C432.325012,243.507431 438.471741,249.756989 443.903778,256.576630 
	C448.274139,262.063416 446.231445,270.065918 439.421295,273.336121 
	C434.244720,275.821869 430.157806,280.548370 424.000000,281.000000 
"/>
<path fill="none" opacity="1.000000" stroke="#000000" stroke-linecap="round" stroke-linejoin="round" stroke-width="3.000000"
	d="
M318.500000,327.500000 
	C318.666656,327.666656 319.002350,327.868652 318.975922,327.994965 
	C317.147766,336.741150 321.752747,342.419342 327.960205,347.548157 
	C331.676971,350.619141 334.676636,354.622864 338.578796,357.388855 
	C343.909760,361.167816 343.525482,366.526733 342.677887,371.444489 
	C342.306732,373.597931 342.923401,375.521393 342.500000,377.500000 
"/>
<path fill="none" opacity="1.000000" stroke="#000000" stroke-linecap="round" stroke-linejoin="round" stroke-width="2.000000"
	d="
M163.500000,296.000000 
	C171.086487,306.169739 178.309494,316.635223 187.500000,325.500000 
"/>
<path fill="none" opacity="1.000000" stroke="#000000" stroke-linecap="round" stroke-linejoin="round" stroke-width="2.000000"
	d="
M447.000000,266.000000 
	C451.813690,266.664459 455.785828,268.527252 459.102692,272.412323 
	C462.294586,276.151001 466.287476,279.219238 470.021118,282.475769 
	C471.661469,283.906525 472.632782,285.343506 471.500000,287.500000 
"/>
<path fill="none" opacity="1.000000" stroke="#000000" stroke-linecap="round" stroke-linejoin="round" stroke-width="2.000000"
	d="
M139.500000,427.000000 
	C146.677963,437.662659 155.293030,447.086487 164.500000,456.000000 
"/>
<path fill="none" opacity="1.000000" stroke="#000000" stroke-linecap="round" stroke-linejoin="round" stroke-width="2.000000"
	d="
M323.500000,283.500000 
	C324.166656,282.833313 324.833313,282.166656 325.903656,281.096313 
	C330.186432,287.775513 336.657135,292.371887 341.489868,298.507965 
	C341.570892,298.610809 341.427094,298.909576 341.510315,298.989197 
	C351.877014,308.905609 349.744385,310.715668 363.507324,303.013092 
	C364.283966,302.578461 365.166656,302.333313 366.000000,301.999969 
"/>
<path fill="none" opacity="1.000000" stroke="#000000" stroke-linecap="round" stroke-linejoin="round" stroke-width="3.000000"
	d="
M345.500000,325.500000 
	C350.143402,331.788940 356.888184,335.773682 362.560760,340.933197 
	C366.935944,344.912689 368.972717,348.799591 367.233765,355.064880 
	C365.978455,359.587708 367.185608,364.385223 371.949036,367.576050 
	C377.172852,371.075287 381.965485,375.212891 387.013672,378.981689 
	C389.791412,381.055389 392.033081,382.813171 390.185791,387.080414 
	C389.152771,389.466583 390.000000,392.666656 390.000000,395.500000 
"/>
<path fill="none" opacity="1.000000" stroke="#000000" stroke-linecap="round" stroke-linejoin="round" stroke-width="2.000000"
	d="
M294.000000,355.500000 
	C295.732178,359.330658 299.043030,361.885345 302.099396,364.378143 
	C305.604340,367.236755 308.567810,370.624817 312.032990,373.459686 
	C316.718384,377.292877 318.249237,381.705719 316.104797,387.538513 
	C315.522186,389.123138 316.067413,391.154694 316.400665,393.017761 
	C316.863770,395.606781 315.450195,397.771881 313.500000,399.500000 
"/>
<path fill="none" opacity="1.000000" stroke="#000000" stroke-linecap="round" stroke-linejoin="round" stroke-width="2.000000"
	d="
M255.000000,432.500000 
	C263.420135,441.805084 271.956543,450.984772 282.500000,458.000000 
"/>
<path fill="none" opacity="1.000000" stroke="#000000" stroke-linecap="round" stroke-linejoin="round" stroke-width="2.000000"
	d="
M203.000000,278.000000 
	C209.848389,288.014435 217.082657,297.724213 225.500000,306.500000 
"/>
<path fill="none" opacity="1.000000" stroke="#000000" stroke-linecap="round" stroke-linejoin="round" stroke-width="3.000000"
	d="
M126.000000,352.500000 
	C117.752914,357.909515 109.112320,362.444702 99.519241,365.070282 
	C97.253799,365.690338 95.544647,367.006226 94.862389,369.968292 
	C93.167213,377.327972 90.424469,384.439453 89.500000,392.000000 
"/>
<path fill="none" opacity="1.000000" stroke="#000000" stroke-linecap="round" stroke-linejoin="round" stroke-width="3.000000"
	d="
M121.500000,315.000000 
	C128.869629,323.838379 135.146423,333.537415 142.938461,342.056274 
	C144.697693,343.979614 146.276978,344.282135 148.503998,343.511536 
	C156.725586,340.666748 164.638885,337.175476 172.000000,332.500000 
"/>
<path fill="none" opacity="1.000000" stroke="#000000" stroke-linecap="round" stroke-linejoin="round" stroke-width="2.000000"
	d="
M245.000000,321.500000 
	C252.777435,331.495483 260.476868,341.556885 269.500000,350.500000 
"/>
<path fill="none" opacity="1.000000" stroke="#000000" stroke-linecap="round" stroke-linejoin="round" stroke-width="3.000000"
	d="
M307.500000,487.500000 
	C302.166656,491.500000 296.836731,495.504578 291.497253,499.496338 
	C290.349213,500.354584 289.241241,501.305908 287.987915,501.977417 
	C279.876587,506.323364 278.799988,506.290131 272.028809,499.969116 
	C265.396393,493.777649 259.000000,487.333344 252.500000,481.000000 
"/>
<path fill="none" opacity="1.000000" stroke="#000000" stroke-linecap="round" stroke-linejoin="round" stroke-width="2.000000"
	d="
M109.000000,381.000000 
	C116.924744,390.256622 123.848061,400.353699 132.500000,409.000000 
"/>
<path fill="none" opacity="1.000000" stroke="#000000" stroke-linecap="round" stroke-linejoin="round" stroke-width="3.000000"
	d="
M503.000000,317.500000 
	C504.284485,314.345551 504.675049,311.858978 501.089935,309.370453 
	C496.066925,305.883789 491.654694,301.513885 487.004974,297.494232 
	C484.606018,295.420380 482.156769,295.225800 479.495300,296.992950 
	C471.943420,302.007294 464.819244,307.600403 456.610046,311.719299 
	C452.772156,313.644928 450.394379,318.144653 448.211304,322.173340 
	C445.464630,320.558929 442.534821,319.775299 440.946350,317.485931 
	C435.317596,319.325134 431.449829,323.691864 426.000000,325.000000 
"/>
<path fill="none" opacity="1.000000" stroke="#000000" stroke-linecap="round" stroke-linejoin="round" stroke-width="3.000000"
	d="
M480.500000,296.000000 
	C478.075531,292.451965 474.736298,289.990234 470.256134,286.752167 
	C471.050415,291.012054 469.106293,293.913300 470.566345,297.146942 
	C461.369293,304.591492 451.129852,310.614563 441.500000,317.500000 
"/>
<path fill="none" opacity="1.000000" stroke="#000000" stroke-linecap="round" stroke-linejoin="round" stroke-width="3.000000"
	d="
M394.000000,231.500000 
	C391.839050,232.348175 389.955658,233.748505 387.505676,234.046585 
	C380.231079,234.931702 377.721558,240.339188 375.940277,246.482681 
	C375.518311,247.937973 376.335358,250.417938 373.500000,250.500000 
"/>
<path fill="none" opacity="1.000000" stroke="#000000" stroke-linecap="round" stroke-linejoin="round" stroke-width="2.000000"
	d="
M342.000000,380.000000 
	C342.977386,383.437653 346.304016,384.735596 348.584442,386.911469 
	C351.748474,389.930328 355.353882,392.558685 359.035156,394.945770 
	C364.217743,398.306427 365.409454,402.768250 364.095856,408.521881 
	C363.711273,410.206390 363.482666,412.243988 364.500000,414.000000 
"/>
<path fill="none" opacity="1.000000" stroke="#000000" stroke-linecap="round" stroke-linejoin="round" stroke-width="3.000000"
	d="
M281.500000,418.000000 
	C281.338074,421.317230 284.182556,422.645630 286.052521,424.445435 
	C290.726532,428.944275 295.475189,433.408966 300.558350,437.426178 
	C304.918488,440.872009 304.356049,445.101166 303.457642,449.491333 
	C302.643433,453.470093 303.068359,456.394989 306.328613,459.670593 
	C311.046478,464.410706 315.333252,469.641937 319.943115,474.553406 
	C324.973846,479.913391 330.156189,483.342499 337.516479,479.028107 
	C337.888611,478.809967 338.500000,479.000000 339.000000,479.000000 
"/>
<path fill="none" opacity="1.000000" stroke="#000000" stroke-linecap="round" stroke-linejoin="round" stroke-width="2.000000"
	d="
M262.500000,412.500000 
	C253.322906,403.991516 244.262878,395.370300 235.956024,385.436920 
	C243.730560,381.147919 251.084534,377.016663 258.515289,373.028473 
	C261.447937,371.454498 262.938171,372.019684 265.281433,375.298889 
	C269.257904,380.863647 274.831299,385.358734 280.050751,389.942200 
	C284.630524,393.963959 286.954132,398.085052 285.206055,404.555664 
	C284.181549,408.347992 285.017426,411.908264 289.268829,415.290558 
	C296.789032,421.273407 303.329010,428.557190 311.009277,434.487976 
	C311.773224,435.077881 312.666687,435.500000 313.500000,436.000000 
"/>
<path fill="none" opacity="1.000000" stroke="#000000" stroke-linecap="round" stroke-linejoin="round" stroke-width="3.000000"
	d="
M368.500000,262.500000 
	C373.076508,256.402649 372.335663,248.881866 374.069458,242.017548 
	C375.285706,237.202072 373.170166,234.097961 370.037262,230.962769 
	C365.538086,226.460419 362.370300,220.719208 357.015991,216.977112 
	C355.030609,215.589539 353.339813,215.126373 350.947327,216.401138 
	C348.666229,217.616577 346.120361,218.420242 343.530792,219.114792 
	C338.166931,220.553421 334.031708,223.904739 331.500000,229.000000 
"/>
<path fill="none" opacity="1.000000" stroke="#000000" stroke-linecap="round" stroke-linejoin="round" stroke-width="3.000000"
	d="
M389.500000,290.500000 
	C383.866425,291.927612 379.455902,296.423920 373.495636,296.950745 
	C371.891022,297.092590 372.332703,298.453613 372.109955,299.041656 
	C370.880035,302.287903 369.706665,305.613525 369.090485,309.016388 
	C368.574341,311.866760 369.098572,314.427155 371.915466,316.609131 
	C376.560272,320.207001 380.311798,325.004089 385.092102,328.369171 
	C390.745422,332.348877 390.251495,337.466705 389.502075,343.000275 
	C389.321716,344.331787 389.166656,345.666656 389.000000,347.000000 
"/>
<path fill="none" opacity="1.000000" stroke="#000000" stroke-linecap="round" stroke-linejoin="round" stroke-width="3.000000"
	d="
M138.500000,364.500000 
	C146.953156,372.341827 153.380676,381.935272 160.935272,390.556702 
	C163.724136,393.739471 162.589523,398.130493 162.965637,402.003326 
	C163.271759,405.155151 162.621429,408.370789 163.500000,411.500000 
"/>
<path fill="none" opacity="1.000000" stroke="#000000" stroke-linecap="round" stroke-linejoin="round" stroke-width="2.000000"
	d="
M396.000000,346.500000 
	C400.280975,352.744934 407.324768,355.510956 413.007629,359.990326 
	C415.629974,362.057312 418.410675,363.612915 416.722229,368.083923 
	C416.031067,369.914062 416.829193,372.953552 418.500000,375.000000 
"/>
<path fill="none" opacity="1.000000" stroke="#000000" stroke-linecap="round" stroke-linejoin="round" stroke-width="3.000000"
	d="
M487.500000,328.000000 
	C476.748535,332.157867 473.364166,337.059387 473.000000,349.000000 
"/>
<path fill="none" opacity="1.000000" stroke="#000000" stroke-linecap="round" stroke-linejoin="round" stroke-width="2.000000"
	d="
M88.500000,275.500000 
	C84.685463,271.225983 81.345261,270.727600 78.498756,273.998932 
	C76.463547,276.337830 76.308334,278.823181 78.537811,280.960571 
	C81.349602,283.656189 84.437134,286.064148 87.853203,288.977936 
	C89.668030,287.559174 92.556931,285.243805 95.507736,283.010223 
	C98.359634,280.851562 99.482010,277.977905 97.404976,275.067810 
	C94.978348,271.667938 91.833336,272.882172 89.000000,275.000000 
"/>
<path fill="none" opacity="1.000000" stroke="#000000" stroke-linecap="round" stroke-linejoin="round" stroke-width="3.000000"
	d="
M188.000000,411.000000 
	C197.042740,402.560974 207.755768,396.816956 219.020874,392.049316 
	C223.361908,390.212097 227.394653,392.376068 230.105942,395.918915 
	C233.674728,400.582275 237.556152,405.226379 242.121597,408.846649 
	C246.935822,412.664124 247.738052,417.517761 246.769440,422.454773 
	C246.009201,426.329712 246.720856,430.260681 245.500000,434.000000 
"/>
<path fill="none" opacity="1.000000" stroke="#000000" stroke-linecap="round" stroke-linejoin="round" stroke-width="3.000000"
	d="
M196.000000,406.500000 
	C203.176910,415.759979 211.154190,424.296539 219.520584,432.501617 
	C230.047638,431.661194 237.274918,424.054016 246.000000,419.500000 
"/>
<path fill="none" opacity="1.000000" stroke="#000000" stroke-linecap="round" stroke-linejoin="round" stroke-width="3.000000"
	d="
M174.500000,368.000000 
	C173.245850,363.296783 170.140472,361.375763 166.494797,362.988220 
	C164.711548,363.776947 163.788132,364.921631 163.967270,367.002808 
	C164.190735,369.598724 165.864578,370.642059 167.986893,371.531281 
	C170.180359,372.450287 171.885864,372.099274 172.954254,369.976959 
	C173.336517,369.217590 173.597031,368.597015 174.500000,368.500000 
"/>
<path fill="none" opacity="1.000000" stroke="#000000" stroke-linecap="round" stroke-linejoin="round" stroke-width="2.000000"
	d="
M271.000000,368.500000 
	C279.500000,376.833344 288.000000,385.166656 296.500000,393.500000 
"/>
<path fill="none" opacity="1.000000" stroke="#000000" stroke-linecap="round" stroke-linejoin="round" stroke-width="2.000000"
	d="
M326.000000,337.500000 
	C333.656097,345.185120 341.215118,352.971619 349.500000,360.000000 
"/>
<path fill="none" opacity="1.000000" stroke="#000000" stroke-linecap="round" stroke-linejoin="round" stroke-width="3.000000"
	d="
M195.500015,287.500031 
	C195.833344,287.166687 196.332062,286.892700 196.476074,286.491455 
	C201.462509,272.598389 215.626694,272.952271 226.067780,267.633057 
	C228.941223,266.169189 232.304016,269.278656 233.255234,271.126038 
	C236.841263,278.090637 242.884933,283.032227 247.086319,289.443420 
	C250.425308,294.538635 251.794174,299.444977 250.185074,305.548798 
	C249.381424,308.597321 249.428360,312.211914 250.500000,315.500000 
"/>
<path fill="none" opacity="1.000000" stroke="#000000" stroke-linecap="round" stroke-linejoin="round" stroke-width="3.000000"
	d="
M251.500000,256.500000 
	C251.500000,256.166656 251.602066,255.790970 251.484039,255.506622 
	C250.425934,252.957367 247.263000,251.410126 247.991165,247.998108 
	C248.750641,244.439316 252.296555,243.921417 254.566315,242.081833 
	C257.291748,239.872910 260.769226,240.567062 262.421906,243.543365 
	C263.729279,245.897797 265.602692,248.241486 266.291199,250.561951 
	C268.947937,259.516266 275.657806,265.513641 281.047668,272.463043 
	C283.287659,275.351166 284.855652,277.743439 284.854309,282.000122 
	C284.852539,287.628967 284.231537,293.351044 285.000000,299.000000 
"/>
<path fill="none" opacity="1.000000" stroke="#000000" stroke-linecap="round" stroke-linejoin="round" stroke-width="2.000000"
	d="
M241.000000,264.000000 
	C248.000000,272.500000 255.000000,281.000000 262.000000,289.500000 
"/>
<path fill="none" opacity="1.000000" stroke="#000000" stroke-linecap="round" stroke-linejoin="round" stroke-width="2.000000"
	d="
M307.000000,235.500000 
	C314.763031,243.596619 320.853577,253.198456 329.326263,260.353149 
	C335.855194,259.471344 341.343201,256.274658 347.000000,253.500000 
"/>
<path fill="none" opacity="1.000000" stroke="#000000" stroke-linecap="round" stroke-linejoin="round" stroke-width="2.000000"
	d="
M320.000000,395.000000 
	C327.657562,402.804474 335.817932,410.010406 345.000000,416.000000 
"/>
<path fill="none" opacity="1.000000" stroke="#000000" stroke-linecap="round" stroke-linejoin="round" stroke-width="2.000000"
	d="
M350.000000,323.000000 
	C357.089844,331.426331 365.466278,338.538086 373.500000,346.000000 
"/>
<path fill="none" opacity="1.000000" stroke="#000000" stroke-linecap="round" stroke-linejoin="round" stroke-width="2.000000"
	d="
M387.000000,300.500000 
	C394.297150,303.943420 398.825989,310.708435 404.992859,315.509186 
	C405.546570,315.940186 405.997101,316.502930 406.500458,316.999542 
	C413.012085,323.424103 414.286591,323.543243 421.473267,317.965546 
	C422.722321,316.996155 423.603210,315.539764 425.500000,316.000000 
"/>
<path fill="none" opacity="1.000000" stroke="#000000" stroke-linecap="round" stroke-linejoin="round" stroke-width="2.000000"
	d="
M401.000000,342.500000 
	C409.166656,348.500000 417.333313,354.500000 425.500000,360.500000 
"/>
<path fill="none" opacity="1.000000" stroke="#000000" stroke-linecap="round" stroke-linejoin="round" stroke-width="2.000000"
	d="
M347.500000,377.000000 
	C355.544739,383.816040 363.263489,391.031403 372.000000,397.000000 
"/>
<path fill="none" opacity="1.000000" stroke="#000000" stroke-linecap="round" stroke-linejoin="round" stroke-width="3.000000"
	d="
M180.500000,351.000000 
	C172.689972,348.093231 167.149399,354.263184 160.498123,355.992798 
	C152.995819,357.943726 147.556061,362.300995 144.500000,369.500000 
"/>
<path fill="none" opacity="1.000000" stroke="#000000" stroke-linecap="round" stroke-linejoin="round" stroke-width="5.000000"
	d="
M372.000000,256.500000 
	C375.529297,257.572083 378.174347,255.168488 380.953217,253.897675 
	C385.524414,251.807236 387.554779,251.731689 390.494110,255.005295 
	C396.014557,261.153595 401.391815,267.435211 407.054443,273.448730 
	C409.251587,275.782043 408.983185,277.897766 408.038269,280.513824 
	C406.677979,284.279816 405.578796,288.140137 403.919556,293.375916 
	C410.661926,289.509552 416.248474,285.800659 422.500000,283.500000 
"/>
<path fill="none" opacity="1.000000" stroke="#000000" stroke-linecap="round" stroke-linejoin="round" stroke-width="2.000000"
	d="
M276.000000,249.500000 
	C282.538788,257.606567 288.716309,266.014191 296.000000,273.500000 
"/>
<path fill="none" opacity="1.000000" stroke="#000000" stroke-linecap="round" stroke-linejoin="round" stroke-width="3.000000"
	d="
M201.000000,383.500000 
	C193.980927,388.030579 186.950684,392.525085 178.505692,394.031921 
	C177.707611,394.174347 176.942062,394.381805 176.431320,395.467682 
	C174.847305,398.835480 172.926407,402.050415 173.500000,406.000000 
"/>
<path fill="none" opacity="1.000000" stroke="#000000" stroke-linecap="round" stroke-linejoin="round" stroke-width="2.000000"
	d="
M381.000000,209.000000 
	C372.528839,206.818268 362.926636,210.158157 358.000000,217.000000 
"/>
<path fill="none" opacity="1.000000" stroke="#000000" stroke-linecap="round" stroke-linejoin="round" stroke-width="2.000000"
	d="
M342.500000,336.500000 
	C339.564148,334.359131 337.982422,336.280579 336.469574,338.261261 
	C336.790497,340.779999 338.395020,342.272858 340.053040,343.423584 
	C341.553406,344.464966 343.399170,344.258270 345.017395,343.022766 
	C346.111542,342.187378 346.442535,340.905304 345.921661,340.047577 
	C344.842743,338.270905 343.082092,338.927795 341.500000,339.500000 
"/>
<path fill="none" opacity="1.000000" stroke="#000000" stroke-linecap="round" stroke-linejoin="round" stroke-width="3.000000"
	d="
M249.500000,296.500000 
	C242.808075,300.741089 235.783325,304.262939 227.987061,305.939850 
	C226.557281,306.247375 225.501343,306.686584 225.014832,308.005463 
	C222.293427,315.382935 219.519730,322.746887 218.000000,330.500000 
"/>
<path fill="none" opacity="1.000000" stroke="#000000" stroke-linecap="round" stroke-linejoin="round" stroke-width="2.000000"
	d="
M409.000000,243.500015 
	C416.000000,251.333344 423.000000,259.166687 430.000000,267.000000 
"/>
<path fill="none" opacity="1.000000" stroke="#000000" stroke-linecap="round" stroke-linejoin="round" stroke-width="2.000000"
	d="
M425.500000,329.000000 
	C432.427795,334.498016 439.503235,339.773041 446.931091,344.605927 
	C449.374176,346.195435 451.347931,346.254883 453.475342,344.959534 
	C457.065186,342.773773 460.500000,340.333344 464.000000,338.000000 
"/>
<path fill="none" opacity="1.000000" stroke="#000000" stroke-linecap="round" stroke-linejoin="round" stroke-width="3.000000"
	d="
M285.000000,413.500000 
	C282.908264,416.400818 279.685150,416.929657 276.618744,418.271393 
	C269.414520,421.423767 262.845581,426.021240 255.985992,429.975708 
	C255.026123,430.529053 254.055923,431.135559 253.072586,431.641174 
	C248.212723,434.140045 247.741150,437.647614 251.521271,441.479004 
	C254.583099,444.582428 257.682251,447.683136 261.039215,450.452454 
	C265.003204,453.722504 266.325470,457.425842 265.172760,462.538940 
	C264.738434,464.465485 263.590088,466.833344 265.000000,469.000000 
"/>
<path fill="none" opacity="1.000000" stroke="#000000" stroke-linecap="round" stroke-linejoin="round" stroke-width="2.000000"
	d="
M337.000000,223.500000 
	C343.675934,231.158615 349.678375,239.402863 357.000000,246.500000 
"/>
<path fill="none" opacity="1.000000" stroke="#000000" stroke-linecap="round" stroke-linejoin="round" stroke-width="2.000000"
	d="
M375.000000,359.500000 
	C382.500000,365.666656 390.000000,371.833344 397.500000,378.000000 
"/>
<path fill="none" opacity="1.000000" stroke="#000000" stroke-linecap="round" stroke-linejoin="round" stroke-width="2.000000"
	d="
M393.000000,247.000000 
	C395.845123,248.888321 397.862091,246.500534 399.964111,245.429581 
	C403.074188,243.845078 405.081879,243.518646 407.640259,246.893677 
	C411.609161,252.129578 416.533386,256.636139 420.987579,261.511353 
	C423.699768,264.479919 427.101807,267.282440 424.081879,272.051849 
	C423.800598,272.496033 424.666626,273.666687 424.999969,274.500000 
"/>
<path fill="none" opacity="1.000000" stroke="#000000" stroke-linecap="round" stroke-linejoin="round" stroke-width="3.000000"
	d="
M493.000000,323.500000 
	C496.088379,321.378357 499.176788,319.256714 502.976166,316.646667 
	C503.146729,321.655090 502.927917,325.690033 499.962372,328.965942 
	C498.224213,330.885986 496.478790,332.802155 494.027618,334.054077 
	C488.022949,337.120941 483.987030,342.699097 478.546539,346.565491 
	C471.349182,351.680420 470.066559,349.994385 465.000000,347.000000 
"/>
<path fill="none" opacity="1.000000" stroke="#000000" stroke-linecap="round" stroke-linejoin="round" stroke-width="3.000000"
	d="
M285.000000,400.500000 
	C277.899750,404.619019 271.469788,409.946381 263.489655,412.467285 
	C262.853973,412.668091 262.664612,412.851929 262.466095,413.489441 
	C261.022034,418.126099 257.990448,422.306793 258.500000,427.500000 
"/>
<path fill="none" opacity="1.000000" stroke="#000000" stroke-linecap="round" stroke-linejoin="round" stroke-width="2.000000"
	d="
M337.500000,393.500000 
	C336.000000,391.811737 334.310455,391.952484 333.099030,393.573975 
	C332.652863,394.171204 331.128845,394.923553 332.405548,396.573090 
	C333.717194,398.267761 334.696960,400.095856 337.001312,400.492371 
	C340.264587,401.053894 341.851685,399.448120 342.000000,395.500000 
"/>
<path fill="none" opacity="1.000000" stroke="#000000" stroke-linecap="round" stroke-linejoin="round" stroke-width="2.000000"
	d="
M454.000000,316.000000 
	C460.622498,322.354858 467.865326,327.925201 475.500000,333.000000 
"/>
<path fill="none" opacity="1.000000" stroke="#000000" stroke-linecap="round" stroke-linejoin="round" stroke-width="3.000000"
	d="
M231.000000,539.000000 
	C229.050278,546.180725 225.960266,553.043152 225.000000,560.500000 
"/>
<path fill="none" opacity="1.000000" stroke="#000000" stroke-linecap="round" stroke-linejoin="round" stroke-width="3.000000"
	d="
M281.500000,436.500000 
	C278.813782,436.701782 277.635529,439.704102 274.763367,440.129700 
	C273.238129,436.895233 274.611847,432.849792 271.949280,429.941833 
	C270.306793,430.956726 268.653381,431.978363 267.000000,433.000000 
"/>
<path fill="none" opacity="1.000000" stroke="#000000" stroke-linecap="round" stroke-linejoin="round" stroke-width="3.000000"
	d="
M449.000000,322.500000 
	C452.666656,325.000000 456.186066,327.763031 460.043121,329.923004 
	C463.606445,331.918457 466.122131,333.762085 464.618134,338.537201 
	C463.791229,341.162598 464.347961,344.191803 463.959442,346.994385 
	C463.303375,351.726318 460.810608,355.469910 456.445038,357.373993 
	C454.694153,358.137634 453.910004,359.602234 452.500000,360.500000 
"/>
<path fill="none" opacity="1.000000" stroke="#000000" stroke-linecap="round" stroke-linejoin="round" stroke-width="2.000000"
	d="
M367.000000,351.000000 
	C361.666107,353.832275 357.039673,358.007843 350.997162,359.488434 
	C348.844391,360.015961 348.342590,362.371887 348.205597,363.524445 
	C347.779419,367.110443 345.454132,370.280609 346.010406,373.998444 
	C346.483154,377.157959 343.223328,377.843201 341.849182,378.778351 
	C335.012848,383.430450 327.666656,387.333344 320.500000,391.500000 
"/>
<path fill="none" opacity="1.000000" stroke="#000000" stroke-linecap="round" stroke-linejoin="round" stroke-width="2.000000"
	d="
M346.000000,271.000000 
	C338.890869,273.235168 332.115967,276.173950 326.000000,280.500000 
"/>
<path fill="none" opacity="1.000000" stroke="#000000" stroke-linecap="round" stroke-linejoin="round" stroke-width="2.000000"
	d="
M350.500000,268.000000 
	C354.806305,267.421143 358.194244,264.718048 361.975983,262.948669 
	C364.855408,261.601471 367.337128,261.619568 369.486267,264.012360 
	C375.822784,271.067261 380.636719,279.357117 387.407227,286.093231 
	C388.408051,287.089020 388.166656,289.333344 388.500000,291.000000 
"/>
<path fill="none" opacity="1.000000" stroke="#000000" stroke-linecap="round" stroke-linejoin="round" stroke-width="3.000000"
	d="
M199.499985,498.000000 
	C197.499985,503.666656 195.633743,509.386963 193.398987,514.959473 
	C192.887695,516.234436 193.373291,517.000000 193.500000,518.000000 
"/>
<path fill="none" opacity="1.000000" stroke="#000000" stroke-linecap="round" stroke-linejoin="round" stroke-width="3.000000"
	d="
M303.000000,444.500000 
	C297.151581,449.810699 290.393707,453.757202 283.500000,457.500000 
"/>
<path fill="none" opacity="1.000000" stroke="#000000" stroke-linecap="round" stroke-linejoin="round" stroke-width="2.000000"
	d="
M342.500000,326.000000 
	C336.166656,329.500000 329.813354,332.964783 323.519684,336.534729 
	C322.473267,337.128265 321.715454,338.199188 321.500000,339.500000 
"/>
<path fill="none" opacity="1.000000" stroke="#000000" stroke-linecap="round" stroke-linejoin="round" stroke-width="3.000000"
	d="
M266.000000,253.000000 
	C253.532257,255.797989 240.713303,257.943756 233.500000,270.500000 
"/>
<path fill="none" opacity="1.000000" stroke="#000000" stroke-linecap="round" stroke-linejoin="round" stroke-width="2.000000"
	d="
M318.000000,340.000000 
	C311.666656,343.500000 305.333344,347.000000 299.000000,350.500000 
"/>
<path fill="none" opacity="1.000000" stroke="#000000" stroke-linecap="round" stroke-linejoin="round" stroke-width="3.000000"
	d="
M469.500000,306.000000 
	C475.000000,310.333313 480.405853,314.794434 486.039764,318.946045 
	C488.853638,321.019562 489.152344,323.297943 488.612762,326.518890 
	C488.039734,329.939392 486.646088,333.427582 488.000000,337.000000 
"/>
<path fill="none" opacity="1.000000" stroke="#000000" stroke-linecap="round" stroke-linejoin="round" stroke-width="3.000000"
	d="
M427.500000,313.000000 
	C425.810059,315.762054 425.139923,319.071350 425.190002,321.996735 
	C425.288330,327.735962 421.905975,329.556091 417.548645,331.603546 
	C410.765320,334.790833 404.008698,338.211304 398.518250,343.518890 
	C396.794830,345.184937 394.961823,346.027893 392.541046,346.657745 
	C385.812592,348.408447 380.732300,353.384247 375.133087,357.195526 
	C372.938995,358.688995 370.110870,359.610809 368.500000,362.000000 
"/>
<path fill="none" opacity="1.000000" stroke="#000000" stroke-linecap="round" stroke-linejoin="round" stroke-width="3.000000"
	d="
M278.500000,505.500000 
	C276.815002,511.876282 272.972290,517.627930 273.000000,524.500000 
"/>
<path fill="none" opacity="1.000000" stroke="#000000" stroke-linecap="round" stroke-linejoin="round" stroke-width="3.000000"
	d="
M316.000000,382.500000 
	C310.393524,385.774384 305.401428,390.103943 299.016052,392.052612 
	C296.768250,392.738617 295.790161,394.925110 295.014008,397.005219 
	C293.748932,400.395447 292.333588,403.761963 292.500000,407.500000 
"/>
<path fill="none" opacity="1.000000" stroke="#000000" stroke-linecap="round" stroke-linejoin="round" stroke-width="2.000000"
	d="
M361.500000,271.500000 
	C364.156830,272.632385 364.691071,275.356689 366.206390,277.278198 
	C364.489929,280.772827 361.889069,279.496124 360.073212,278.380798 
	C358.240814,277.255310 357.000000,275.166656 355.500000,273.500000 
"/>
<path fill="none" opacity="1.000000" stroke="#000000" stroke-linecap="round" stroke-linejoin="round" stroke-width="2.000000"
	d="
M364.500031,364.000031 
	C358.500031,367.500031 352.500031,371.000031 346.500031,374.500031 
"/>
<path fill="none" opacity="1.000000" stroke="#000000" stroke-linecap="round" stroke-linejoin="round" stroke-width="3.000000"
	d="
M388.000000,292.000000 
	C388.225861,296.943787 387.532806,301.336975 382.527893,304.051422 
	C378.061951,306.473602 373.833344,309.333313 369.500000,312.000000 
"/>
<path fill="none" opacity="1.000000" stroke="#000000" stroke-linecap="round" stroke-linejoin="round" stroke-width="2.000000"
	d="
M298.500000,351.500000 
	C291.998230,355.996460 284.364227,358.235565 277.519928,362.035889 
	C275.227234,363.308899 273.166687,365.000000 271.000000,366.500000 
"/>
<path fill="none" opacity="1.000000" stroke="#000000" stroke-linecap="round" stroke-linejoin="round" stroke-width="3.000000"
	d="
M241.000000,367.000000 
	C240.694199,371.723175 238.458527,375.941681 237.367538,380.468079 
	C236.997620,382.002899 237.595688,383.166656 237.500000,384.500000 
"/>
<path fill="none" opacity="1.000000" stroke="#000000" stroke-linecap="round" stroke-linejoin="round" stroke-width="2.000000"
	d="
M255.500000,394.000000 
	C258.449066,394.695190 260.867737,394.241241 262.257477,390.878357 
	C260.720245,388.732178 258.839691,389.835693 256.996399,389.908386 
	C255.354568,389.973114 252.776138,391.020386 252.133942,388.958282 
	C251.089569,385.604919 254.723465,387.075745 256.000000,386.000000 
"/>
<path fill="none" opacity="1.000000" stroke="#000000" stroke-linecap="round" stroke-linejoin="round" stroke-width="3.000000"
	d="
M389.500000,387.500000 
	C383.745544,390.509583 378.395660,394.254395 372.747955,397.439636 
	C369.120880,399.485199 367.710449,405.726807 368.500000,411.000000 
"/>
<path fill="none" opacity="1.000000" stroke="#000000" stroke-linecap="round" stroke-linejoin="round" stroke-width="2.000000"
	d="
M342.000000,367.500000 
	C338.162445,368.174561 335.828949,371.413788 332.544830,373.087921 
	C329.921356,374.425323 327.396393,375.858429 324.079315,376.178680 
	C320.310577,372.690948 316.155273,368.845459 312.000000,365.000000 
"/>
<path fill="none" opacity="1.000000" stroke="#000000" stroke-linecap="round" stroke-linejoin="round" stroke-width="2.000000"
	d="
M362.500000,405.000000 
	C358.620544,408.255676 354.675873,411.496826 349.975708,413.441284 
	C345.323517,415.365936 342.695679,418.726013 342.081573,423.510468 
	C341.752106,426.077484 338.802307,428.060455 340.500000,431.000000 
"/>
<path fill="none" opacity="1.000000" stroke="#000000" stroke-linecap="round" stroke-linejoin="round" stroke-width="2.000000"
	d="
M366.000000,312.500000 
	C360.267517,316.896912 353.695099,319.881165 347.500000,323.500000 
"/>
<path fill="none" opacity="1.000000" stroke="#000000" stroke-linecap="round" stroke-linejoin="round" stroke-width="2.000000"
	d="
M343.500000,314.000000 
	C337.856689,316.552917 333.140808,321.208038 326.183685,321.135742 
	C323.172211,317.828186 319.836090,314.164093 316.500000,310.500000 
"/>
<path fill="none" opacity="1.000000" stroke="#000000" stroke-linecap="round" stroke-linejoin="round" stroke-width="2.000000"
	d="
M376.000000,270.500000 
	C381.777405,274.188873 385.874176,279.614990 390.520386,284.480560 
	C392.434326,286.484863 391.041077,287.920776 390.000000,289.500000 
"/>
<path fill="none" opacity="1.000000" stroke="#000000" stroke-linecap="round" stroke-linejoin="round" stroke-width="3.000000"
	d="
M299.000000,336.000000 
	C298.880005,339.511658 297.243347,342.643341 296.487305,345.997131 
	C296.032990,348.012665 294.570892,350.000000 296.500000,352.000000 
"/>
<path fill="none" opacity="1.000000" stroke="#000000" stroke-linecap="round" stroke-linejoin="round" stroke-width="5.000000"
	d="
M444.000000,261.500031 
	C439.666687,263.333344 435.328674,265.155823 431.005859,267.013672 
	C430.462891,267.247009 429.686890,267.570404 429.550049,268.015381 
	C428.550385,271.267151 426.051758,273.642944 424.605225,276.552307 
	C421.987396,281.817505 422.664520,284.292084 427.019287,288.479950 
	C430.759521,292.076782 434.666656,295.500000 438.500000,299.000000 
"/>
<path fill="none" opacity="1.000000" stroke="#000000" stroke-linecap="round" stroke-linejoin="round" stroke-width="3.000000"
	d="
M351.000000,308.000000 
	C349.599670,312.814850 347.081848,317.313721 346.981415,322.499634 
	C346.951904,324.022369 346.523285,325.320770 344.500000,324.500000 
"/>
<path fill="none" opacity="1.000000" stroke="#000000" stroke-linecap="round" stroke-linejoin="round" stroke-width="3.000000"
	d="
M233.500000,371.000000 
	C234.301453,374.000000 234.340866,377.011261 233.487122,379.996307 
	C232.842819,382.249023 232.445938,384.440063 234.000000,386.500000 
"/>
<path fill="none" opacity="1.000000" stroke="#000000" stroke-linecap="round" stroke-linejoin="round" stroke-width="3.000000"
	d="
M442.000000,358.500000 
	C445.098206,357.499115 447.635803,357.397034 450.621857,359.851776 
	C454.931335,363.394348 458.574097,367.617554 462.933289,371.083893 
	C463.889160,371.843964 464.000000,373.666656 464.500000,375.000000 
"/>
<path fill="none" opacity="1.000000" stroke="#000000" stroke-linecap="round" stroke-linejoin="round" stroke-width="3.000000"
	d="
M441.000000,351.500000 
	C436.835876,354.441650 433.230164,358.222931 428.016907,359.565613 
	C426.282135,360.012390 425.212128,361.220947 424.852509,363.476501 
	C424.369934,366.503479 422.327637,369.220642 422.500000,372.500000 
"/>
<path fill="none" opacity="1.000000" stroke="#000000" stroke-linecap="round" stroke-linejoin="round" stroke-width="3.000000"
	d="
M389.000000,338.500000 
	C384.174927,340.516510 380.232422,344.266235 375.010651,345.543549 
	C373.692719,345.865967 373.328278,347.046509 372.871918,348.458588 
	C371.647644,352.246674 369.764008,355.825500 370.500000,360.000000 
"/>
<path fill="none" opacity="1.000000" stroke="#000000" stroke-linecap="round" stroke-linejoin="round" stroke-width="2.000000"
	d="
M301.000000,294.000000 
	C305.500000,298.833344 310.000000,303.666656 314.500000,308.500000 
"/>
<path fill="none" opacity="1.000000" stroke="#000000" stroke-linecap="round" stroke-linejoin="round" stroke-width="3.000000"
	d="
M324.000000,377.000000 
	C322.744324,381.854767 319.597961,386.141937 319.908813,391.505280 
	C319.992676,392.952454 318.432190,393.932190 317.000000,394.500000 
"/>
<path fill="none" opacity="1.000000" stroke="#000000" stroke-linecap="round" stroke-linejoin="round" stroke-width="2.000000"
	d="
M326.000000,322.000000 
	C324.833344,326.000000 323.861145,330.073395 322.394104,333.960022 
	C321.883575,335.312622 322.697113,335.693909 323.000000,336.500000 
"/>
<path fill="none" opacity="1.000000" stroke="#000000" stroke-linecap="round" stroke-linejoin="round" stroke-width="3.000000"
	d="
M406.500000,282.000000 
	C403.494141,280.312805 401.536865,283.179596 399.628387,284.232666 
	C397.060883,285.649384 394.684479,286.025146 392.000000,286.000000 
"/>
<path fill="none" opacity="1.000000" stroke="#000000" stroke-linecap="round" stroke-linejoin="round" stroke-width="3.000000"
	d="
M404.000000,292.500000 
	C399.333344,295.166656 394.666656,297.833313 390.000000,300.500000 
"/>
<path fill="none" opacity="1.000000" stroke="#000000" stroke-linecap="round" stroke-linejoin="round" stroke-width="3.000000"
	d="
M423.500000,272.000000 
	C419.263519,274.871155 414.454010,276.137909 409.500000,277.000000 
"/>
<path fill="none" opacity="1.000000" stroke="#000000" stroke-linecap="round" stroke-linejoin="round" stroke-width="3.000000"
	d="
M270.000000,309.500000 
	C260.036102,309.444855 252.308167,314.824554 244.504059,320.006104 
	C242.809692,321.131073 241.166656,322.333313 239.500000,323.500000 
"/>
<path fill="none" opacity="1.000000" stroke="#000000" stroke-linecap="round" stroke-linejoin="round" stroke-width="2.000000"
	d="
M97.000000,527.500000 
	C100.554779,531.279236 103.672287,535.870544 110.572533,533.895386 
	C107.981941,538.531860 105.924232,542.560608 109.252434,546.857178 
	C106.149727,549.770996 103.399521,545.081055 101.098969,546.645508 
	C99.003120,548.070801 95.115494,547.571899 95.000000,551.500000 
"/>
<path fill="none" opacity="1.000000" stroke="#000000" stroke-linecap="round" stroke-linejoin="round" stroke-width="2.000000"
	d="
M368.000000,222.000000 
	C371.902100,226.587021 375.486267,231.456650 380.000000,235.500000 
"/>
<path fill="none" opacity="1.000000" stroke="#000000" stroke-linecap="round" stroke-linejoin="round" stroke-width="3.000000"
	d="
M213.000000,316.000000 
	C214.556366,318.059753 213.965759,320.283936 213.500580,322.500122 
	C212.731049,326.166321 212.732620,329.833344 213.500000,333.500000 
"/>
<path fill="none" opacity="1.000000" stroke="#000000" stroke-linecap="round" stroke-linejoin="round" stroke-width="3.000000"
	d="
M289.500000,342.500000 
	C291.134949,344.902100 290.422241,347.841156 289.727631,349.908478 
	C289.066162,351.877106 289.390930,353.677155 289.000000,355.500000 
"/>
<path fill="none" opacity="1.000000" stroke="#000000" stroke-linecap="round" stroke-linejoin="round" stroke-width="2.000000"
	d="
M97.000000,529.500000 
	C96.077660,534.457703 93.824287,538.283997 88.120071,539.462524 
	C92.925987,540.868286 94.776871,544.096313 95.000000,548.500000 
"/>
<path fill="none" opacity="1.000000" stroke="#000000" stroke-linecap="round" stroke-linejoin="round" stroke-width="2.000000"
	d="
M414.000000,223.000000 
	C409.974243,224.604874 406.451691,227.281754 402.012604,228.070862 
	C398.089478,228.768250 398.881409,233.143158 397.000000,235.500000 
"/>
<path fill="none" opacity="1.000000" stroke="#000000" stroke-linecap="round" stroke-linejoin="round" stroke-width="2.000000"
	d="
M400.500000,228.500000 
	C396.733856,224.763077 393.996887,219.950226 389.000000,217.500000 
"/>
<path fill="none" opacity="1.000000" stroke="#000000" stroke-linecap="round" stroke-linejoin="round" stroke-width="2.000000"
	d="
M299.500000,352.000000 
	C303.333344,356.000000 307.166687,360.000000 311.000000,364.000000 
"/>
<path fill="none" opacity="1.000000" stroke="#000000" stroke-linecap="round" stroke-linejoin="round" stroke-width="3.000000"
	d="
M220.000000,433.000000 
	C218.603775,436.763458 217.035950,440.474701 216.500000,444.500000 
"/>
<path fill="none" opacity="1.000000" stroke="#000000" stroke-linecap="round" stroke-linejoin="round" stroke-width="2.000000"
	d="
M149.000000,391.500000 
	C152.225021,397.258026 151.937103,397.833862 145.500000,398.500000 
"/>
<path fill="none" opacity="1.000000" stroke="#000000" stroke-linecap="round" stroke-linejoin="round" stroke-width="3.000000"
	d="
M449.000000,346.500000 
	C447.113159,349.759949 446.418640,353.417328 445.500000,357.000000 
"/>
<path fill="none" opacity="1.000000" stroke="#000000" stroke-linecap="round" stroke-linejoin="round" stroke-width="3.000000"
	d="
M294.500000,315.500000 
	C293.193481,312.887573 290.945435,311.075165 289.013672,308.987366 
	C287.514221,307.366791 286.500275,308.168549 285.500000,309.500000 
"/>
<path fill="none" opacity="1.000000" stroke="#000000" stroke-linecap="round" stroke-linejoin="round" stroke-width="3.000000"
	d="
M228.500000,341.500000 
	C228.550369,343.480621 230.264450,344.035248 231.439331,345.200073 
	C233.539841,344.264282 235.519913,343.382141 237.500000,342.500000 
"/>
<path fill="none" opacity="1.000000" stroke="#000000" stroke-linecap="round" stroke-linejoin="round" stroke-width="2.000000"
	d="
M125.500008,380.500000 
	C127.833336,383.833344 130.166672,387.166656 132.500000,390.500000 
"/>
<path fill="none" opacity="1.000000" stroke="#000000" stroke-linecap="round" stroke-linejoin="round" stroke-width="2.000000"
	d="
M86.500000,337.500000 
	C89.325760,340.673340 92.151512,343.846680 95.085571,347.141632 
	C96.963478,345.638397 99.208488,345.008728 101.500000,344.500000 
"/>
<path fill="none" opacity="1.000000" stroke="#000000" stroke-linecap="round" stroke-linejoin="round" stroke-width="2.000000"
	d="
M451.500000,209.000000 
	C448.768646,210.200119 446.222473,212.974289 442.687805,209.332245 
	C442.040375,212.934891 444.179474,216.558411 440.601379,218.845551 
	C443.658966,220.035248 447.861633,218.176086 448.115997,223.247833 
	C451.267212,222.100555 450.352875,217.519547 454.545166,217.733765 
	C451.214264,215.363098 453.311798,212.005386 452.000000,209.500000 
"/>
<path fill="none" opacity="1.000000" stroke="#000000" stroke-linecap="round" stroke-linejoin="round" stroke-width="3.000000"
	d="
M440.500000,308.500000 
	C442.475403,311.756531 437.960022,314.291840 439.500000,317.500000 
"/>
<path fill="none" opacity="1.000000" stroke="#000000" stroke-linecap="round" stroke-linejoin="round" stroke-width="3.000000"
	d="
M411.500000,322.500000 
	C409.600159,326.469360 410.227448,330.843048 409.500000,335.000000 
"/>
<path fill="none" opacity="1.000000" stroke="#000000" stroke-linecap="round" stroke-linejoin="round" stroke-width="3.000000"
	d="
M195.000000,352.000000 
	C196.000000,352.666656 197.032547,353.289856 197.993423,354.008789 
	C200.180969,355.645508 202.224991,357.481354 204.609833,354.076935 
	C204.993896,353.528717 206.833328,354.000000 208.000000,354.000000 
"/>
<path fill="none" opacity="1.000000" stroke="#000000" stroke-linecap="round" stroke-linejoin="round" stroke-width="3.000000"
	d="
M335.000000,425.000000 
	C336.661591,427.322906 333.487000,430.290619 336.000000,432.500000 
"/>
<path fill="none" opacity="1.000000" stroke="#000000" stroke-linecap="round" stroke-linejoin="round" stroke-width="2.000000"
	d="
M184.000000,300.000000 
	C181.080795,302.837128 181.178024,304.295563 184.500000,307.500000 
"/>
<path fill="none" opacity="1.000000" stroke="#000000" stroke-linecap="round" stroke-linejoin="round" stroke-width="2.000000"
	d="
M361.500000,214.000000 
	C362.539276,216.957230 365.577972,218.343491 367.000000,221.000000 
"/>
<path fill="none" opacity="1.000000" stroke="#000000" stroke-linecap="round" stroke-linejoin="round" stroke-width="2.000000"
	d="
M428.500000,248.500000 
	C426.002563,248.216690 425.595673,243.403793 421.677856,245.401947 
	C422.896454,247.709869 424.446503,249.331482 426.500000,250.500000 
"/>
<path fill="none" opacity="1.000000" stroke="#000000" stroke-linecap="round" stroke-linejoin="round" stroke-width="3.000000"
	d="
M213.000000,406.000000 
	C214.858109,408.950470 217.218979,410.991760 220.991013,409.966888 
	C222.350098,409.597595 222.936478,410.857239 224.000000,411.000000 
"/>
<path fill="none" opacity="1.000000" stroke="#000000" stroke-linecap="round" stroke-linejoin="round" stroke-width="3.000000"
	d="
M206.000000,347.000000 
	C208.264664,349.774536 208.288071,353.492737 210.000000,356.500000 
"/>
<path fill="none" opacity="1.000000" stroke="#000000" stroke-linecap="round" stroke-linejoin="round" stroke-width="3.000000"
	d="
M398.500000,361.500000 
	C393.628448,359.870056 388.328003,361.456604 383.500000,359.500000 
"/>
<path fill="none" opacity="1.000000" stroke="#000000" stroke-linecap="round" stroke-linejoin="round" stroke-width="3.000000"
	d="
M415.000000,229.500000 
	C417.206512,231.157913 419.582520,232.660461 420.500000,235.500000 
"/>
<path fill="none" opacity="1.000000" stroke="#000000" stroke-linecap="round" stroke-linejoin="round" stroke-width="4.000000"
	d="
M236.000000,385.500000 
	C233.008484,387.285126 231.970215,390.763062 229.500000,393.000000 
"/>
<path fill="none" opacity="1.000000" stroke="#000000" stroke-linecap="round" stroke-linejoin="round" stroke-width="2.000000"
	d="
M303.500000,261.500000 
	C305.000000,259.423645 306.871674,259.378387 307.880646,261.555328 
	C308.667053,263.251953 307.936340,265.168549 305.500000,265.500000 
"/>
<path fill="none" opacity="1.000000" stroke="#000000" stroke-linecap="round" stroke-linejoin="round" stroke-width="4.000000"
	d="
M271.500000,481.000000 
	C273.666656,481.666656 275.826691,482.356079 278.001831,482.993774 
	C280.304932,483.668976 282.839783,484.477539 283.449768,480.991211 
	C283.951843,478.121582 283.164886,475.927490 279.500000,476.500000 
"/>
<path fill="none" opacity="1.000000" stroke="#000000" stroke-linecap="round" stroke-linejoin="round" stroke-width="2.000000"
	d="
M317.500000,298.000000 
	C315.230469,298.578156 313.669983,296.320099 311.500000,296.500000 
"/>
<path fill="none" opacity="1.000000" stroke="#000000" stroke-linecap="round" stroke-linejoin="round" stroke-width="3.000000"
	d="
M299.500000,414.500000 
	C303.833344,415.000000 308.166656,415.500000 312.500000,416.000000 
"/>
<path fill="none" opacity="1.000000" stroke="#000000" stroke-linecap="round" stroke-linejoin="round" stroke-width="3.000000"
	d="
M216.500000,410.500000 
	C215.211258,412.500000 215.744400,414.500000 216.500000,416.500000 
"/>
<path fill="none" opacity="1.000000" stroke="#000000" stroke-linecap="round" stroke-linejoin="round" stroke-width="2.000000"
	d="
M403.000000,300.500000 
	C404.833313,302.166687 406.666656,303.833344 408.500000,305.500000 
"/>
<path fill="none" opacity="1.000000" stroke="#000000" stroke-linecap="round" stroke-linejoin="round" stroke-width="3.000000"
	d="
M410.000000,344.000000 
	C412.608246,345.101532 414.911438,347.288300 418.137115,344.668854 
	C419.078796,343.904175 421.666656,345.166656 423.500000,345.500000 
"/>
<path fill="none" opacity="1.000000" stroke="#000000" stroke-linecap="round" stroke-linejoin="round" stroke-width="3.000000"
	d="
M268.000000,328.000000 
	C265.858582,327.564789 264.179962,326.281189 262.500000,325.000000 
"/>
<path fill="none" opacity="1.000000" stroke="#000000" stroke-linecap="round" stroke-linejoin="round" stroke-width="2.000000"
	d="
M387.000000,361.000000 
	C387.778564,363.443451 390.433899,363.540955 392.000000,365.000000 
"/>
<path fill="none" opacity="1.000000" stroke="#000000" stroke-linecap="round" stroke-linejoin="round" stroke-width="2.000000"
	d="
M334.500000,246.500000 
	C339.522247,246.231750 339.559753,246.278625 338.500000,251.500000 
"/>
<path fill="none" opacity="1.000000" stroke="#000000" stroke-linecap="round" stroke-linejoin="round" stroke-width="2.000000"
	d="
M315.500000,350.500000 
	C314.000031,351.500061 312.500092,352.500122 310.834991,353.610291 
	C311.948242,356.528748 315.274628,357.688995 316.500000,360.500000 
"/>
<path fill="none" opacity="1.000000" stroke="#000000" stroke-linecap="round" stroke-linejoin="round" stroke-width="2.000000"
	d="
M230.500000,334.500000 
	C229.477188,336.586456 226.945374,336.517212 225.500961,338.005554 
	C225.586792,339.386597 226.667648,340.110474 227.500000,341.000000 
"/>
<path fill="none" opacity="1.000000" stroke="#000000" stroke-linecap="round" stroke-linejoin="round" stroke-width="3.000000"
	d="
M303.000000,459.000000 
	C300.500000,461.000000 298.000000,463.000000 295.500000,465.000000 
"/>
<path fill="none" opacity="1.000000" stroke="#000000" stroke-linecap="round" stroke-linejoin="round" stroke-width="2.000000"
	d="
M389.500000,356.500000 
	C391.512451,357.007782 393.212311,357.917511 394.000000,360.000000 
"/>
<path fill="none" opacity="1.000000" stroke="#000000" stroke-linecap="round" stroke-linejoin="round" stroke-width="2.000000"
	d="
M200.500000,307.500000 
	C201.983902,308.199677 203.488632,308.887451 202.500000,311.000000 
"/>
<path fill="none" opacity="1.000000" stroke="#000000" stroke-linecap="round" stroke-linejoin="round" stroke-width="2.000000"
	d="
M284.500000,252.500000 
	C287.021301,254.936111 290.809387,253.571854 293.500000,255.500000 
"/>
<path fill="none" opacity="1.000000" stroke="#000000" stroke-linecap="round" stroke-linejoin="round" stroke-width="2.000000"
	d="
M306.500000,416.000000 
	C306.666656,417.500000 306.833313,419.000000 307.000000,420.500000 
"/>
<path fill="none" opacity="1.000000" stroke="#000000" stroke-linecap="round" stroke-linejoin="round" stroke-width="3.000000"
	d="
M261.000000,324.000000 
	C257.638855,325.282806 260.487915,327.694763 260.000000,329.500000 
"/>
<path fill="none" opacity="1.000000" stroke="#000000" stroke-linecap="round" stroke-linejoin="round" stroke-width="2.000000"
	d="
M398.500000,301.500000 
	C401.282684,303.345337 403.299835,306.211365 406.500000,307.500000 
"/>
<path fill="none" opacity="1.000000" stroke="#000000" stroke-linecap="round" stroke-linejoin="round" stroke-width="2.000000"
	d="
M318.000000,293.500000 
	C318.608307,296.237000 316.607941,299.789185 320.500000,301.500000 
"/>
<path fill="none" opacity="1.000000" stroke="#000000" stroke-linecap="round" stroke-linejoin="round" stroke-width="3.000000"
	d="
M270.500000,367.500000 
	C267.348602,367.886536 265.794647,370.349701 264.000000,372.500000 
"/>
<path fill="none" opacity="1.000000" stroke="#000000" stroke-linecap="round" stroke-linejoin="round" stroke-width="2.000000"
	d="
M367.500000,294.000000 
	C369.654816,294.017761 370.179962,296.480042 372.000000,297.000000 
"/>
<path fill="none" opacity="1.000000" stroke="#000000" stroke-linecap="round" stroke-linejoin="round" stroke-width="2.000000"
	d="
M348.500000,224.500000 
	C351.283356,226.228561 351.509705,228.687714 350.500000,231.500000 
"/>
<path fill="none" opacity="1.000000" stroke="#000000" stroke-linecap="round" stroke-linejoin="round" stroke-width="2.000000"
	d="
M221.500000,281.500000 
	C223.958969,281.582062 226.395432,281.709137 227.500000,284.500000 
"/>
<path fill="none" opacity="1.000000" stroke="#000000" stroke-linecap="round" stroke-linejoin="round" stroke-width="2.000000"
	d="
M233.500000,338.500000 
	C231.836212,338.804596 230.541229,339.699280 229.500000,341.000000 
"/>
<path fill="none" opacity="1.000000" stroke="#000000" stroke-linecap="round" stroke-linejoin="round" stroke-width="2.000000"
	d="
M358.500000,325.500000 
	C360.632385,328.034271 363.963440,329.369873 365.500000,332.500000 
"/>
<path fill="none" opacity="1.000000" stroke="#000000" stroke-linecap="round" stroke-linejoin="round" stroke-width="2.000000"
	d="
M386.000000,310.000000 
	C383.747284,312.346405 386.066437,313.055420 387.521088,313.414581 
	C389.639191,313.937561 391.421661,314.222626 390.000000,317.000000 
"/>
<path fill="none" opacity="1.000000" stroke="#000000" stroke-linecap="round" stroke-linejoin="round" stroke-width="2.000000"
	d="
M363.500000,322.500000 
	C365.833313,324.500000 368.166656,326.500000 370.500000,328.500000 
"/>
<path fill="none" opacity="1.000000" stroke="#000000" stroke-linecap="round" stroke-linejoin="round" stroke-width="2.000000"
	d="
M318.500000,354.500000 
	C317.166656,355.166656 315.833344,355.833344 314.500000,356.500000 
"/>
<path fill="none" opacity="1.000000" stroke="#000000" stroke-linecap="round" stroke-linejoin="round" stroke-width="2.000000"
	d="
M365.500000,325.500000 
	C364.333344,326.333344 363.166656,327.166656 362.000000,328.000000 
"/>
<path fill="none" opacity="1.000000" stroke="#000000" stroke-linecap="round" stroke-linejoin="round" stroke-width="2.000000"
	d="
M199.500000,311.500000 
	C200.774918,312.133972 202.464539,309.450409 203.701111,313.219238 
	C203.758682,313.573608 201.174118,312.872620 201.500000,314.500000 
"/>
<path fill="none" opacity="1.000000" stroke="#000000" stroke-linecap="round" stroke-linejoin="round" stroke-width="2.000000"
	d="
M338.500000,281.500000 
	C336.431274,282.376862 335.119843,283.695618 336.528748,285.982300 
	C337.861633,288.145691 340.037781,289.419861 342.499664,289.410919 
	C344.607635,289.403259 345.875122,285.807465 344.465393,284.027405 
	C343.125275,282.335175 341.298096,281.310883 339.000000,281.500000 
"/>
</svg>