<svg version="1.1" id="Layer_1" xmlns="http://www.w3.org/2000/svg" xmlns:xlink="http://www.w3.org/1999/xlink" x="0px" y="0px"
	 width="100%" viewBox="0 0 560 752" enable-background="new 0 0 560 752" xml:space="preserve">
<path fill="#000000" opacity="1.000000" stroke="none" 
	d="
M457.565613,395.553406 
	C467.456726,437.149811 463.344757,476.248352 436.097687,509.880707 
	C409.485016,542.729919 373.745239,555.575195 331.969147,549.544434 
	C294.692291,544.163147 265.154419,524.249634 240.061630,497.158234 
	C225.703613,481.656708 214.495758,463.928192 204.950836,445.123810 
	C186.767334,409.300629 163.442810,376.888123 139.060623,345.127747 
	C127.519768,330.094574 115.899635,315.106018 107.545769,297.815521 
	C97.845642,277.738556 99.655525,259.298431 112.812614,241.563187 
	C121.012123,230.510529 130.558868,220.835739 141.353699,212.342026 
	C145.576889,209.019089 145.678116,208.023743 140.941544,205.241714 
	C127.391945,197.283295 115.811317,187.206238 106.601891,174.453491 
	C105.533669,172.974289 104.604446,171.388168 103.692482,169.804565 
	C102.801720,168.257797 102.282776,166.620651 104.267479,165.499344 
	C106.124718,164.450043 107.061279,165.978104 107.862686,167.177368 
	C111.475166,172.583237 115.310921,177.763046 119.870514,182.463638 
	C128.567947,191.429977 139.086533,197.819656 149.594513,204.261398 
	C151.033279,205.143417 151.089523,205.051682 153.825180,203.465439 
	C153.234589,201.619156 151.415359,201.319168 150.023193,200.631836 
	C137.141144,194.271652 126.095093,185.578445 116.992935,174.491852 
	C115.184784,172.289474 111.192329,169.321411 114.576630,166.694473 
	C117.814484,164.181213 118.777222,169.110336 120.336769,171.009750 
	C130.521378,183.413895 143.253052,192.181305 158.057541,198.137085 
	C160.880112,199.272568 163.181808,198.300766 165.639267,197.074997 
	C187.052460,186.394119 209.543213,179.462982 233.603516,178.936783 
	C258.631073,178.389450 281.402527,186.792648 303.124573,198.219406 
	C351.244659,223.532608 388.137177,260.778473 416.865417,306.499481 
	C432.058990,330.680023 445.279846,355.848358 454.067261,383.146545 
	C455.340820,387.102844 456.328064,391.151337 457.565613,395.553406 
M196.404907,247.164124 
	C181.069244,237.141891 165.455338,227.502457 151.626297,215.373535 
	C149.411087,213.430664 147.802673,213.518173 145.585327,215.265030 
	C132.392883,225.658432 120.706093,237.373047 112.144409,251.995697 
	C106.627930,261.417419 105.868721,270.323090 112.287842,279.981598 
	C122.226143,294.935181 134.340424,307.977173 146.617844,320.869629 
	C164.884155,340.050964 183.832977,358.584991 201.997894,377.859558 
	C230.135590,407.716034 256.904144,438.762695 279.196960,473.338074 
	C291.331818,492.158783 302.164917,511.693329 304.897339,534.515259 
	C305.291321,537.806030 307.685638,538.371887 309.995544,539.169067 
	C328.927643,545.702576 348.403168,547.986145 368.085541,544.322021 
	C422.079224,534.270569 452.565979,493.117310 456.737244,443.109558 
	C459.080780,415.014130 452.254883,388.551178 441.297028,362.993774 
	C428.631195,333.452667 412.288055,306.076172 392.640289,280.614410 
	C367.218811,247.670441 336.354767,221.320923 299.540131,201.821899 
	C265.556244,183.822189 230.466614,178.417908 193.482452,191.182098 
	C186.193832,193.697586 178.776917,195.952148 171.198578,200.724518 
	C179.692230,203.548340 185.816483,209.813553 194.961639,206.930878 
	C198.841644,205.707840 203.178986,206.970230 207.207153,208.363419 
	C213.630951,210.585205 218.837769,214.806534 224.394882,218.440598 
	C233.055359,224.104095 241.319962,230.329544 248.599731,237.702530 
	C255.931107,245.127792 255.234436,252.667801 247.078415,258.968079 
	C239.710159,264.659821 231.849823,265.976257 223.210709,262.100067 
	C214.059647,257.994202 205.679565,252.524094 196.404907,247.164124 
M162.503510,351.033722 
	C172.617172,362.760193 182.735886,374.482330 192.836975,386.219635 
	C193.893921,387.447784 195.571259,388.865601 193.780319,390.444122 
	C191.964676,392.044312 190.776337,390.189392 189.757446,388.938660 
	C162.763885,355.804077 132.233932,325.504761 108.760941,287.856171 
	C110.221275,291.132202 111.174232,293.231720 112.096375,295.344666 
	C119.434097,312.158173 130.609787,326.525909 141.695709,340.858551 
	C167.410675,374.104584 191.803207,408.134155 210.886246,445.788727 
	C226.315994,476.234650 247.009109,502.485779 275.760284,521.669250 
	C283.060913,526.540344 290.495941,531.222900 298.651489,534.281616 
	C299.619995,533.310059 299.365967,532.502502 299.265442,531.680237 
	C297.766785,519.419250 293.169556,508.180634 287.527435,497.377777 
	C271.376160,466.453217 249.615692,439.531952 227.304504,412.956757 
	C200.478714,381.004120 170.119980,352.439423 141.421158,322.284424 
	C136.008118,316.596741 130.709778,310.799927 125.358505,305.053467 
	C136.703293,320.968933 149.164307,335.903229 162.503510,351.033722 
M211.141403,238.343262 
	C216.510010,243.795547 221.947952,249.181793 227.224884,254.721405 
	C231.320602,259.020996 234.906448,259.070709 240.981262,254.567947 
	C244.721893,251.795303 245.138214,249.280457 241.398300,244.297104 
	C233.268570,233.464432 223.767258,223.832687 212.607773,216.175705 
	C202.567703,209.286819 186.164505,211.335175 178.838623,219.966599 
	C191.516556,222.507080 201.409256,229.606476 211.141403,238.343262 
M198.142227,234.357925 
	C194.235092,231.598938 189.946136,229.602982 185.472687,227.930099 
	C195.317795,237.044373 206.668640,244.052979 217.481689,251.803604 
	C211.481293,245.820557 205.725464,239.602509 198.142227,234.357925 
M170.714478,212.112671 
	C167.957321,213.859634 165.297760,215.701706 163.740845,218.808594 
	C165.808746,221.031921 167.706482,222.898621 170.984528,223.850952 
	C170.293777,216.194885 175.799164,213.388306 181.633575,210.210205 
	C177.070648,208.421387 174.303818,210.599411 170.714478,212.112671 
M163.530304,204.154022 
	C160.325912,206.086792 156.705994,207.479279 154.557022,210.762939 
	C155.255966,212.830322 156.413605,214.064316 158.889496,214.522690 
	C161.643799,210.834442 165.473602,208.074417 170.002335,206.048920 
	C167.151443,203.800552 167.151443,203.800552 163.530304,204.154022 
z"/>
<path fill="#000000" opacity="1.000000" stroke="none" 
	d="
M251.496719,277.239075 
	C249.005341,267.485504 253.239761,261.850677 262.750214,261.713104 
	C275.655853,261.526337 291.883087,275.274292 293.320587,287.612671 
	C294.100555,294.307373 290.891937,298.526520 284.191071,298.265778 
	C269.473633,297.693085 258.997040,289.991119 251.496719,277.239075 
M261.119934,271.506165 
	C266.462891,276.520782 272.043091,281.226990 278.316986,285.070282 
	C279.733490,285.938049 282.415619,286.448944 281.126007,288.870697 
	C279.940094,291.097778 277.802338,289.725891 276.293457,288.893066 
	C270.725677,285.819794 265.871429,281.789246 261.314301,277.370331 
	C259.658905,275.765167 258.147522,273.859009 255.461258,272.829071 
	C258.236969,283.346680 273.888641,294.553314 283.851959,293.677368 
	C287.937042,293.318237 289.694153,291.102325 288.211578,287.236664 
	C284.604614,277.831696 278.252960,270.710022 268.874908,266.836304 
	C265.575989,265.473663 261.762604,265.444519 258.168396,267.310669 
	C258.340424,269.135773 259.720276,269.936829 261.119934,271.506165 
z"/>
</svg>